<svg width="100" height="17" viewBox="0 0 100 17" fill="none" xmlns="http://www.w3.org/2000/svg">
<path d="M9.71546 1.45348V10.8427C9.71546 12.8171 8.34222 14.2376 6.11071 14.2376C3.88635 14.2376 2.50596 12.8171 2.50596 10.8427V1.45348H0.295898V11.0202C0.295898 14.0742 2.59894 16.2404 6.11071 16.2404C9.62248 16.2404 11.9327 14.0742 11.9327 11.0202V1.45348H9.71546Z" fill="#101828"/>
<path d="M17.1127 9.52166C17.1127 7.78161 18.1856 6.78729 19.6732 6.78729C21.1252 6.78729 22.0049 7.73189 22.0049 9.3157V15.9989H24.1434V9.06001C24.1434 6.36115 22.6486 4.9478 20.4028 4.9478C18.7506 4.9478 17.6706 5.70774 17.1628 6.86541H17.0269V5.08984H14.9742V15.9989H17.1127V9.52166Z" fill="#101828"/>
<path d="M32.1397 5.08984H29.8867V2.47621H27.7482V5.08984H26.1389V6.79439H27.7482V13.2362C27.741 15.2177 29.2645 16.1765 30.9524 16.141C31.6319 16.1339 32.0896 16.006 32.3399 15.9137L31.9537 14.1594C31.8107 14.1879 31.546 14.2518 31.2027 14.2518C30.509 14.2518 29.8867 14.0245 29.8867 12.7958V6.79439H32.1397V5.08984Z" fill="#101828"/>
<path d="M34.5053 15.9989H36.6438V5.08984H34.5053V15.9989ZM35.5853 3.40661C36.322 3.40661 36.9371 2.83842 36.9371 2.1424C36.9371 1.44638 36.322 0.871094 35.5853 0.871094C34.8415 0.871094 34.2335 1.44638 34.2335 2.1424C34.2335 2.83842 34.8415 3.40661 35.5853 3.40661Z" fill="#101828"/>
<path d="M44.649 5.08984H42.3961V2.47621H40.2575V5.08984H38.6483V6.79439H40.2575V13.2362C40.2504 15.2177 41.7738 16.1765 43.4618 16.141C44.1412 16.1339 44.599 16.006 44.8493 15.9137L44.4631 14.1594C44.32 14.1879 44.0554 14.2518 43.7121 14.2518C43.0183 14.2518 42.3961 14.0245 42.3961 12.7958V6.79439H44.649V5.08984Z" fill="#101828"/>
<path d="M49.3892 1.45348H47.2507V15.9989H49.3892V1.45348Z" fill="#101828"/>
<path d="M57.001 16.2191C59.3971 16.2191 61.0921 15.0472 61.5785 13.2717L59.5544 12.9094C59.1682 13.9393 58.2384 14.4648 57.0225 14.4648C55.1915 14.4648 53.9613 13.2859 53.9041 11.1836H61.7144V10.4308C61.7144 6.48899 59.3398 4.9478 56.8508 4.9478C53.7897 4.9478 51.7727 7.26314 51.7727 10.6154C51.7727 14.0032 53.761 16.2191 57.001 16.2191ZM53.9112 9.59269C53.9971 8.04439 55.1271 6.70206 56.8651 6.70206C58.5245 6.70206 59.6116 7.92365 59.6188 9.59269H53.9112Z" fill="#101828"/>
<path d="M68.1997 16.212C70.2024 16.212 70.9891 14.9975 71.3753 14.3015H71.5542V15.9989H73.6426V1.45348H71.5041V6.85831H71.3753C70.9891 6.18359 70.2596 4.9478 68.214 4.9478C65.5605 4.9478 63.608 7.02876 63.608 10.5657C63.608 14.0955 65.5319 16.212 68.1997 16.212ZM68.6718 14.4009C66.7621 14.4009 65.7679 12.7319 65.7679 10.5444C65.7679 8.3782 66.7407 6.75178 68.6718 6.75178C70.5385 6.75178 71.5398 8.26456 71.5398 10.5444C71.5398 12.8384 70.5171 14.4009 68.6718 14.4009Z" fill="#101828"/>
<path d="M91.6163 1.45348V10.8427C91.6163 12.8171 90.2431 14.2376 88.0116 14.2376C85.7872 14.2376 84.4068 12.8171 84.4068 10.8427V1.45348H82.1968V11.0202C82.1968 14.0742 84.4998 16.2404 88.0116 16.2404C91.5233 16.2404 93.8335 14.0742 93.8335 11.0202V1.45348H91.6163Z" fill="#101828"/>
<path d="M99.2568 1.45348H97.0467V15.9989H99.2568V1.45348Z" fill="#101828"/>
</svg>
